# xmcd CD database file
#
# Track frame offsets:
#	187
#	16720
#	34217
#	47182
#	63852
#	75372
#	89375
#	100935
#	113602
#	126927
#
# Disc length: 1899 seconds
#
# Revision: 2
# Processed by: cddbd v1.5.2PL0 Copyright (c) Steve Scherf et al.
# Submitted via: CDex 1.70beta2
#
DISCID=7107690a
DTITLE=Barbara Mandrell - Greatest Hits
DYEAR=1985
DGENRE=Country
TTITLE0=I Was Country When Country Wasn't Cool
TTITLE1=Years
TTITLE2=Wish You Were Here
TTITLE3=The Best Of Strangers
TTITLE4=Happy Birhtday Dear Heartache
TTITLE5=(If Loving You Is Wrong) I Don't Want To Be Right
TTITLE6=Crackers
TTITLE7=One Of A Kind Pair Of Fools
TTITLE8=In Times Like These
TTITLE9=There's No Love In Tennesee
EXTD=YEAR: 1985
EXTT0=
EXTT1=
EXTT2=
EXTT3=
EXTT4=
EXTT5=
EXTT6=
EXTT7=
EXTT8=
EXTT9=
PLAYORDER=
